# xmcd
#
# Track frame offsets:
#	150
#	15421
#	28020
#	49357
#	63767
#	81345
#	95645
#	109295
#	127490
#	143922
#	157256
#	169950
#	186449
#	202846
#	223500
#	237804
#	253870
#	268372
#	286147
#	302152
#
# Disc length: 4222 seconds
#
# Revision: 0
# Processed by: cddbd v1.5.2PL0 Copyright (c) Steve Scherf et al.
# Submitted via: EZCDAudioConverter 3.1.0.1
#
DISCID=37107c14
DTITLE=Nu Urban Traxx Volume 239 US
DYEAR=2017
DGENRE=blues
TTITLE0=DJ Khaled ft. Rihanna and Bryson Tiller - Wild Thoughts
TTITLE1=Dej Loaf - No Fear
TTITLE2=Jay-Z - 4:44
TTITLE3=Tee Grizzley - No Effort
TTITLE4=Drake - Signs
TTITLE5=Travi$ Scott - Butterfly Effect
TTITLE6=Ty Dolla $ign ft. Lil Wayne and The-Dream - Love U Better
TTITLE7=Metro Boomin ft. Offset and Drake - No Complaints
TTITLE8=Gucci Mane ft. Chris Brown - Tone It Down
TTITLE9=Kodie Shane - Drip On My Walk
TTITLE10=Bryson Tiller - Run Me Dry
TTITLE11=Cardi B - Bodak Yellow
TTITLE12=Young Greatness - We Rollin'
TTITLE13=Yo Gotti ft. Nicki Minaj - Rake It Up
TTITLE14=Sage The Gemini - Reverse
TTITLE15=Lecrae ft. 1k Phew - Hammer Time
TTITLE16=Cierra Ramirez ft. Baeza - Faded
TTITLE17=WillThaRapper - Pull Up Hop Out
TTITLE18=Maxwell - Gods
TTITLE19=Blac Youngsta ft. Lil Yachty - Hip Hopper
EXTD=
EXTT0=
EXTT1=
EXTT2=
EXTT3=
EXTT4=
EXTT5=
EXTT6=
EXTT7=
EXTT8=
EXTT9=
EXTT10=
EXTT11=
EXTT12=
EXTT13=
EXTT14=
EXTT15=
EXTT16=
EXTT17=
EXTT18=
EXTT19=
PLAYORDER=
